<svg width="19" height="26" viewBox="0 0 19 26" fill="none" xmlns="http://www.w3.org/2000/svg">
<path d="M10.5874 0C11.2064 0.206348 11.8169 0.429892 12.2812 0.937165C12.84 1.55621 13.055 2.28703 13.0722 3.10382C13.0808 3.49932 13.0722 3.90342 13.0722 4.33332C14.0437 4.33332 14.9637 4.33332 15.8922 4.33332C16.6403 4.33332 16.6575 4.34192 16.7176 5.07273C16.9154 7.36836 17.1045 9.66398 17.3023 11.9596C17.5516 14.7625 17.8096 17.574 18.0589 20.3769C18.1793 21.7268 18.2911 23.0852 18.4028 24.4437C18.4458 24.9338 18.3512 25.0369 17.8697 25.0369C12.092 25.0369 6.32284 25.0369 0.545081 25.0369C0.0636015 25.0369 -0.0395738 24.908 0.0120134 24.4523C0.355927 21.3571 0.691246 18.2532 1.03516 15.158C1.36188 12.2347 1.69719 9.30288 2.03251 6.37961C2.0841 5.90672 2.11849 5.44244 2.17007 4.96956C2.23026 4.4107 2.30764 4.34192 2.8665 4.34192C3.77787 4.34192 4.69784 4.34192 5.6608 4.34192C5.6608 3.90343 5.678 3.50792 5.6608 3.11242C5.58342 1.53042 6.72694 0.257933 8.11119 0.051585C8.13699 0.051585 8.15418 0.0171957 8.17997 0C8.98817 0 9.78777 0 10.5874 0ZM2.8751 5.04694C2.16148 11.4867 1.45645 17.8921 0.751427 24.3233C4.8526 24.3233 8.885 24.3233 12.9604 24.3233C13.4419 17.9007 13.9233 11.4867 14.4048 5.01255C13.7256 5.01255 13.0979 5.01255 12.4703 5.01255C11.5159 5.00395 11.5159 5.00395 11.4901 5.97551C11.4901 6.0013 11.4901 6.03569 11.4901 6.06149C11.4901 6.29363 11.4644 6.51717 11.172 6.52577C10.8539 6.53437 10.8109 6.30223 10.8109 6.05289C10.8023 5.71757 10.8109 5.38225 10.8109 5.03834C9.28909 5.03834 7.85326 5.03834 6.37442 5.03834C6.37442 5.42524 6.40881 5.78635 6.35723 6.13027C6.33143 6.27643 6.13368 6.3968 6.01331 6.53437C5.90154 6.3968 5.70379 6.27643 5.6866 6.13027C5.63501 5.78635 5.6694 5.42524 5.6694 5.03834C4.72364 5.04694 3.82946 5.04694 2.8751 5.04694ZM16.0384 5.02115C15.8407 5.02115 15.6773 5.03834 15.5311 5.02115C15.17 4.96956 15.0754 5.13292 15.0669 5.48543C15.0583 6.04429 14.9809 6.59455 14.9465 7.15341C14.8433 8.64944 14.6456 10.1541 14.6799 11.6501C14.7487 14.7539 14.9551 17.8577 15.084 20.9616C15.1012 21.4258 15.2302 21.7784 15.6171 22.0535C15.8836 22.2426 16.1072 22.492 16.3565 22.7069C16.7692 23.068 17.1733 23.4291 17.6634 23.8504C17.1045 17.5052 16.5715 11.2804 16.0384 5.02115ZM7.93923 4.29893C8.91939 4.29893 9.85656 4.29893 10.7937 4.29893C10.7937 3.73147 10.8367 3.1984 10.7851 2.68253C10.7077 1.90872 10.3036 1.31547 9.59862 0.962958C9.47825 0.902773 9.2805 0.885578 9.16873 0.937165C8.4637 1.28108 8.03381 1.85713 7.94783 2.63094C7.89624 3.17261 7.93923 3.71427 7.93923 4.29893ZM14.8863 22.32C14.5338 23.0165 14.2157 23.6441 13.8803 24.3147C14.9723 24.3147 16.004 24.3147 17.1131 24.3147C16.3393 23.6269 15.6343 22.9907 14.8863 22.32ZM11.4901 4.30752C11.8083 4.30752 12.0662 4.30752 12.3241 4.30752C12.6337 2.3988 11.9372 0.962959 10.5788 0.799599C11.6535 1.77975 11.5073 3.04364 11.4901 4.30752ZM7.22561 4.32472C7.22561 3.06083 7.05365 1.78835 8.0768 0.782403C7.71569 0.919968 7.38037 1.06613 7.11384 1.29827C6.13368 2.12367 6.40022 3.24999 6.40022 4.33332C6.68395 4.32472 6.92469 4.32472 7.22561 4.32472ZM14.2415 17.6858C14.2157 17.6858 14.1813 17.6858 14.1555 17.6858C14.0265 19.3796 13.9061 21.0733 13.7772 22.7671C14.1899 22.1911 14.5768 21.6236 14.3962 20.8756C14.3532 20.695 14.379 20.5059 14.3704 20.3167C14.3274 19.4397 14.2844 18.5628 14.2415 17.6858Z" fill="black" fill-opacity="0.6"/>
</svg>
