<svg width="18" height="21" viewBox="0 0 18 21" fill="none" xmlns="http://www.w3.org/2000/svg">
<path fill-rule="evenodd" clip-rule="evenodd" d="M8.75 4.5C7.31609 4.5 5.91438 4.92521 4.72212 5.72185C3.52986 6.51849 2.60061 7.65078 2.05188 8.97554C1.50314 10.3003 1.35957 11.758 1.63931 13.1644C1.91905 14.5708 2.60955 15.8626 3.62348 16.8765C4.63741 17.8905 5.92924 18.5809 7.3356 18.8607C8.74196 19.1404 10.1997 18.9969 11.5245 18.4481C12.8492 17.8994 13.9815 16.9701 14.7782 15.7779C15.5748 14.5856 16 13.1839 16 11.75C16 11.3358 16.3358 11 16.75 11C17.1642 11 17.5 11.3358 17.5 11.75C17.5 13.4806 16.9868 15.1723 16.0254 16.6112C15.0639 18.0502 13.6973 19.1717 12.0985 19.8339C10.4996 20.4962 8.7403 20.6695 7.04296 20.3319C5.34563 19.9942 3.78653 19.1609 2.56282 17.9372C1.33911 16.7135 0.505752 15.1544 0.168131 13.457C-0.169489 11.7597 0.00379021 10.0004 0.666057 8.40152C1.32832 6.80267 2.44983 5.4361 3.88877 4.47464C5.3277 3.51318 7.01942 3 8.75 3C9.16422 3 9.5 3.33579 9.5 3.75C9.5 4.16421 9.16422 4.5 8.75 4.5Z" fill="#3B903F"/>
<path fill-rule="evenodd" clip-rule="evenodd" d="M6.21967 0.21967C6.51256 -0.0732232 6.98744 -0.0732232 7.28033 0.21967L9.92678 2.86612C10.4149 3.35427 10.4149 4.14573 9.92678 4.63388L7.28033 7.28033C6.98744 7.57322 6.51256 7.57322 6.21967 7.28033C5.92678 6.98744 5.92678 6.51256 6.21967 6.21967L8.68934 3.75L6.21967 1.28033C5.92678 0.987437 5.92678 0.512563 6.21967 0.21967Z" fill="#3B903F"/>
</svg>
