<svg width="24" height="24" viewBox="0 0 24 24" fill="none" xmlns="http://www.w3.org/2000/svg">
<path fill-rule="evenodd" clip-rule="evenodd" d="M4.71429 10.5352C3.62944 10.5352 2.75 11.4146 2.75 12.4994C2.75 13.5843 3.62944 14.4637 4.71429 14.4637C5.79913 14.4637 6.67857 13.5843 6.67857 12.4994C6.67857 11.4146 5.79913 10.5352 4.71429 10.5352ZM1.25 12.4994C1.25 10.5862 2.80101 9.03516 4.71429 9.03516C6.62756 9.03516 8.17857 10.5862 8.17857 12.4994C8.17857 14.4127 6.62756 15.9637 4.71429 15.9637C2.80101 15.9637 1.25 14.4127 1.25 12.4994Z" fill="#4FC6AF"/>
<path fill-rule="evenodd" clip-rule="evenodd" d="M18.2846 3.75C17.1998 3.75 16.3203 4.62944 16.3203 5.71429C16.3203 6.79913 17.1998 7.67857 18.2846 7.67857C19.3694 7.67857 20.2489 6.79913 20.2489 5.71429C20.2489 4.62944 19.3694 3.75 18.2846 3.75ZM14.8203 5.71429C14.8203 3.80101 16.3713 2.25 18.2846 2.25C20.1979 2.25 21.7489 3.80101 21.7489 5.71429C21.7489 7.62756 20.1979 9.17857 18.2846 9.17857C16.3713 9.17857 14.8203 7.62756 14.8203 5.71429Z" fill="#4FC6AF"/>
<path fill-rule="evenodd" clip-rule="evenodd" d="M18.2846 17.3203C17.1998 17.3203 16.3203 18.1998 16.3203 19.2846C16.3203 20.3694 17.1998 21.2489 18.2846 21.2489C19.3694 21.2489 20.2489 20.3694 20.2489 19.2846C20.2489 18.1998 19.3694 17.3203 18.2846 17.3203ZM14.8203 19.2846C14.8203 17.3713 16.3713 15.8203 18.2846 15.8203C20.1979 15.8203 21.7489 17.3713 21.7489 19.2846C21.7489 21.1979 20.1979 22.7489 18.2846 22.7489C16.3713 22.7489 14.8203 21.1979 14.8203 19.2846Z" fill="#4FC6AF"/>
<path fill-rule="evenodd" clip-rule="evenodd" d="M16.2204 6.69253C16.4291 7.05032 16.3082 7.50956 15.9504 7.71827L8.17969 12.2512V12.7468L15.9504 17.2797C16.3082 17.4885 16.4291 17.9477 16.2204 18.3055C16.0117 18.6633 15.5524 18.7841 15.1946 18.5754L7.1014 13.8544C6.84026 13.702 6.67969 13.4225 6.67969 13.1201V11.8779C6.67969 11.5756 6.84026 11.296 7.1014 11.1437L15.1946 6.4226C15.5524 6.21389 16.0117 6.33474 16.2204 6.69253Z" fill="#4FC6AF"/>
</svg>
