<svg width="22" height="21" viewBox="0 0 22 21" fill="none" xmlns="http://www.w3.org/2000/svg">
<path d="M0 19.0901C0.0193393 18.8731 0.0386784 18.6561 0.0601665 18.4412C0.244965 16.72 0.818698 15.1385 1.77922 13.6966C2.28849 12.9316 2.89015 12.2483 3.57777 11.6423C3.82274 11.4253 4.09994 11.3608 4.40292 11.4876C4.90789 11.6982 5.00888 12.3471 4.6135 12.7361C4.25035 13.0949 3.87431 13.4473 3.54769 13.8406C2.53345 15.0675 1.89955 16.475 1.6331 18.0479C1.59227 18.2929 1.56434 18.5422 1.52781 18.7957C7.53589 18.7957 13.5225 18.7957 19.5263 18.7957C19.4983 18.5658 19.4769 18.3402 19.4403 18.1189C19.2405 16.8962 18.815 15.7573 18.1467 14.713C17.0809 13.052 15.624 11.8637 13.7868 11.1417C13.746 11.1266 13.6815 11.1352 13.6428 11.1567C12.9552 11.565 12.2203 11.8422 11.4274 11.9582C10.0973 12.1559 8.83377 11.9496 7.65837 11.2964C6.03172 10.3896 4.98095 9.02078 4.63714 7.18999C4.20093 4.84993 4.93368 2.88591 6.74728 1.34736C7.63688 0.59313 8.68765 0.167665 9.84587 0.0387363C12.9573 -0.309372 15.6842 1.7277 16.3654 4.58133C16.8424 6.57328 16.3847 8.36539 15.0739 9.94047C15.0546 9.96411 15.0353 9.98989 15.0073 10.0243C15.0374 10.0415 15.0632 10.0587 15.0911 10.0715C17.9233 11.4855 19.7884 13.7073 20.6759 16.7479C20.8865 17.4721 21.0004 18.2134 21.0412 18.9676C21.0433 19.0106 21.0519 19.0514 21.0584 19.0923C21.0584 19.2857 21.0584 19.4791 21.0584 19.6724C21.0498 19.6982 21.0412 19.7262 21.0326 19.752C20.9445 20.0334 20.7597 20.2118 20.4739 20.287C20.4202 20.3021 20.3622 20.3063 20.3063 20.3171C13.7889 20.3171 7.26944 20.3171 0.752085 20.3171C0.72415 20.3106 0.698364 20.302 0.67043 20.2999C0.440506 20.2741 0.257857 20.1645 0.133226 19.9733C0.0752081 19.883 0.0451252 19.7734 0.00214895 19.6724C1.31121e-07 19.4769 0 19.2835 0 19.0901ZM10.5249 1.50423C8.03442 1.51067 6.01453 3.53056 6.01668 6.01674C6.01668 8.50291 8.03871 10.5249 10.527 10.5271C13.0154 10.5292 15.046 8.49862 15.0417 6.01029C15.0374 3.51981 13.0089 1.49778 10.5249 1.50423Z" fill="black" fill-opacity="0.6"/>
</svg>
