<svg width="23" height="22" viewBox="0 0 23 22" fill="none" xmlns="http://www.w3.org/2000/svg">
<path d="M22.5037 6.87528C22.4275 7.32078 22.3689 7.77215 22.2633 8.20593C21.9292 9.60105 21.2961 10.8672 20.5341 12.0748C19.4379 13.804 18.1073 15.3398 16.677 16.7936C15.0415 18.4466 13.283 19.959 11.4306 21.3599C11.2958 21.4655 11.2137 21.4655 11.0789 21.3599C8.42349 19.3435 5.94979 17.1277 3.80435 14.566C2.56163 13.083 1.47133 11.5062 0.726872 9.70656C0.375161 8.85659 0.1231 7.98318 0.0410337 7.06286C0.0351719 6.99838 0.0117237 6.93976 0 6.87528C0 6.55288 0 6.23048 0 5.90808C0.0117237 5.83187 0.02931 5.74981 0.0410337 5.6736C0.111376 5.03466 0.25206 4.4133 0.527568 3.83884C1.67649 1.42961 3.5816 0.116557 6.26047 0.0227675C7.84317 -0.0299893 9.25002 0.503439 10.4576 1.53513C10.7389 1.77546 10.9851 2.05683 11.2489 2.32648C11.3075 2.262 11.3486 2.22096 11.3896 2.17993C11.923 1.5703 12.5444 1.0779 13.2654 0.720329C15.0415 -0.164812 16.8587 -0.246879 18.67 0.544473C20.5986 1.38858 21.8237 2.87163 22.3278 4.92914C22.4099 5.25155 22.4451 5.59154 22.5037 5.9198C22.5037 6.23048 22.5037 6.55288 22.5037 6.87528ZM11.2313 19.6248C11.2782 19.5955 11.3075 19.5838 11.3251 19.5662C13.4237 17.8956 15.4108 16.1136 17.1635 14.0795C18.3007 12.7606 19.3383 11.3772 20.1062 9.80035C20.5751 8.83901 20.9444 7.84249 21.003 6.76977C21.1144 4.74743 20.3231 3.153 18.5587 2.1389C16.8822 1.17169 15.1705 1.25962 13.5233 2.27372C12.7202 2.76612 12.1575 3.4754 11.7296 4.30779C11.5889 4.5833 11.4248 4.85294 11.2548 5.15776C11.0379 4.77088 10.8444 4.42503 10.651 4.07331C9.67207 2.25614 7.64387 1.19514 5.58635 1.55271C3.80435 1.85753 2.54991 2.87163 1.84063 4.53054C1.34823 5.68533 1.39512 6.87528 1.72925 8.05938C2.19234 9.71243 3.06576 11.1603 4.07986 12.5203C5.62739 14.5895 7.4387 16.4125 9.39656 18.089C10.0003 18.6107 10.6158 19.1149 11.2313 19.6248Z" fill="black" fill-opacity="0.6"/>
</svg>
