<svg width="24" height="24" viewBox="0 0 24 24" fill="none" xmlns="http://www.w3.org/2000/svg">
<path d="M18.5 8.91804C18.5 14.8696 13.6593 20.3075 12.3327 21.686C12.1474 21.8786 11.8526 21.8786 11.6673 21.686C10.3407 20.3075 5.5 14.8696 5.5 8.91804C5.5 4.78011 8.75 2.02148 12 2.02148C15.25 2.02148 18.5 4.78011 18.5 8.91804Z" fill="#4FC6AF"/>
<path fill-rule="evenodd" clip-rule="evenodd" d="M12 2.77148C9.15729 2.77148 6.25 5.20121 6.25 8.91804C6.25 11.6999 7.38582 14.4091 8.72797 16.6288C9.93645 18.6275 11.2793 20.1755 12 20.9468C12.7207 20.1755 14.0636 18.6275 15.272 16.6288C16.6142 14.4091 17.75 11.6999 17.75 8.91804C17.75 5.20121 14.8427 2.77148 12 2.77148ZM4.75 8.91804C4.75 4.359 8.34271 1.27148 12 1.27148C15.6573 1.27148 19.25 4.359 19.25 8.91804C19.25 12.0877 17.9655 15.0732 16.5556 17.405C15.1405 19.7454 13.5581 21.4943 12.8731 22.2061C12.3928 22.7052 11.6072 22.7052 11.1269 22.2061C10.4419 21.4943 8.8595 19.7454 7.44436 17.405C6.03452 15.0732 4.75 12.0877 4.75 8.91804Z" fill="#4FC6AF"/>
<path d="M14 10C14 11.1046 13.1046 12 12 12C10.8954 12 10 11.1046 10 10C10 8.89543 10.8954 8 12 8C13.1046 8 14 8.89543 14 10Z" fill="white"/>
</svg>
